# AST/ASF file generated using VICON BodyLanguage
# -----------------------------------------------
:version 1.10
:name VICON
:units
  mass 1.0
  length 0.45
  angle deg
:documentation
   .ast/.asf automatically generated from VICON data using
   VICON BodyBuilder and BodyLanguage model FoxedUp or BRILLIANT.MOD
:root
   order TX TY TZ RX RY RZ
   axis XYZ
   position 0 0 0  
   orientation 0 0 0 
:bonedata
  begin
     id 1 
     name lhipjoint
     direction 0.677091 -0.635792 0.370561 
     length 2.74323 
     axis 0 0 0  XYZ
  end
  begin
     id 2 
     name lfemur
     direction 0.34202 -0.939693 0  
     length 7.44995  
     axis 0 0 20  XYZ
    dof rx ry rz
    limits (-160.0 20.0)
           (-70.0 70.0)
           (-60.0 70.0)
  end
  begin
     id 3 
     name ltibia
     direction 0.34202 -0.939693 0   
     length 7.34467   
     axis 0 0 20   XYZ
    dof rx
    limits (-10.0 170.0)
  end
  begin
     id 4 
     name lfoot
     direction 0.101953 -0.280114 0.954537   
     length 1.72105   
     axis -90 7.62852e-016 20   XYZ
    dof rx rz
    limits (-45.0 90.0)
           (-70.0 20.0)
  end
  begin
     id 5 
     name ltoes
     direction 1.53537e-011 -4.21915e-011 1   
     length 0.865872   
     axis -90 7.62852e-016 20   XYZ
    dof rx
    limits (-90.0 20.0)
  end
  begin
     id 6 
     name rhipjoint
     direction -0.695735 -0.620586 0.361699   
     length 2.81045  
     axis 0 0 0  XYZ 
  end
  begin
     id 7 
     name rfemur
     direction -0.34202 -0.939693 0   
     length 7.29387   
     axis 0 0 -20   XYZ
    dof rx ry rz
    limits (-160.0 20.0)
           (-70.0 70.0)
           (-70.0 60.0)
  end
  begin
     id 8 
     name rtibia
     direction -0.34202 -0.939693 0   
     length 7.44935   
     axis 0 0 -20   XYZ
    dof rx
    limits (-10.0 170.0)
 end
 begin
     id 9 
     name rfoot
     direction -0.104163 -0.286184 0.952496   
     length 1.77731  
     axis -90 -7.62852e-016 -20   XYZ
    dof rx rz
    limits (-45.0 90.0)
           (-20.0 70.0)
  end
  begin
     id 10 
     name rtoes
     direction -1.5355e-011 -4.21888e-011 1   
     length 0.892424   
     axis -90 -7.62852e-016 -20   XYZ
    dof rx
    limits (-90.0 20.0)
  end
  begin
     id 11 
     name lowerback
     direction 0.0100202 0.997226 -0.0737589   
     length 2.16892   
     axis 0 0 0   XYZ
    dof rx ry rz
    limits (-20.0 45.0)
           (-30.0 30.0)
           (-30.0 30.0)
  end
  begin
     id 12 
     name upperback
     direction 0.00432398 0.999988 -0.00215019   
     length 2.17326   
     axis 0 0 0   XYZ
    dof rx ry rz
    limits (-20.0 45.0)
           (-30.0 30.0)
           (-30.0 30.0)
  end
  begin
     id 13 
     name thorax
     direction -0.00195047 0.999485 0.0320434   
     length 2.18139   
     axis 0 0 0   XYZ
    dof rx ry rz
    limits (-20.0 45.0)
           (-30.0 30.0)
           (-30.0 30.0)
  end
  begin
     id 14 
     name lowerneck
     direction 0.00782762 0.986241 0.165128   
     length 1.88415   
     axis 0 0 0   XYZ
    dof rx ry rz
    limits (-20.0 45.0)
           (-30.0 30.0)
           (-30.0 30.0)
  end
  begin
     id 15 
     name upperneck
     direction 0.00988667 0.981098 -0.193258   
     length 1.9242   
     axis 0 0 0   XYZ
    dof rx ry rz
    limits (-20.0 45.0)
           (-30.0 30.0)
           (-30.0 30.0)
  end
  begin
     id 16
     name head
     direction 0.00252199 0.996513 -0.0833958  
     length 1.93887  
     axis 0 0 0   XYZ
    dof rx ry rz
    limits (-20.0 45.0)
           (-30.0 30.0)
           (-30.0 30.0)
  end
  begin
     id 17 
     name lclavicle
     direction 0.929492 0.368193 -0.0218667  
     length 3.5955  
     axis 0 0 0   XYZ
    dof ry rz
    limits (-20.0 10.0)
           (0.0 20.0)
  end
  begin
     id 18 
     name lhumerus
     direction 1 -4.48972e-011 1.41911e-027   
     length 5.2795   
     axis 180 -30 -90   XYZ
    dof rx ry rz
    limits (-60.0 90.0)
           (-90.0 90.0)
           (-90.0 90.0)
  end
  begin
     id 19
     name lradius
     direction 1 -4.48963e-011 7.05772e-027   
     length 3.53504   
     axis 180 -30 -90   XYZ
    dof rx
    limits (-10.0 170.0)
  end
  begin
     id 20
     name lwrist
     direction 1 -4.48957e-011 9.54866e-027   
     length 1.76752   
     axis -7.69462e-015 90 90   XYZ
    dof ry
    limits (-180.0 0.0)
 end
  begin
     id 21 
     name lhand
     direction 1 -4.48979e-011 1.90973e-026   
     length 0.667948   
     axis -1.21857e-014 90 90   XYZ
    dof rx rz
    limits (-90.0 90.0)
           (-45.0 45.0)
  end
  begin
     id 22 
     name lfingers
     direction 1 -4.48987e-011 3.81946e-026   
     length 0.538517   
     axis -2.43714e-014 90 90   XYZ
    dof rx
    limits (0.0 90.0)
  end
  begin
     id 23
     name lthumb
     direction 0.707107 -6.34962e-011 0.707107   
     length 0.773206   
     axis -90 45 2.85299e-015   XYZ
    dof rx rz
    limits (-45.0 45.0)
           (-45.0 45.0)
  end
  begin
     id 24 
     name rclavicle
     direction -0.898763 0.414256 -0.143584   
     length 3.5176  
     axis 0 0 0   XYZ 
    dof ry rz
    limits (-10.0 20.0)
           (-20.0 0.0)
  end
  begin
     id 25 
     name rhumerus
     direction -1 -4.48971e-011 1.129e-027  
     length 5.25035   
     axis 180 30 90   XYZ
    dof rx ry rz
    limits (-90.0 60.0)
           (-90.0 90.0)
           (-90.0 90.0)
  end
  begin
     id 26 
     name rradius
     direction -1 -4.48955e-011 6.34664e-027   
     length 3.58884   
     axis 180 30 90   XYZ
    dof rx
    limits (-10.0 170.0)
  end
  begin
     id 27 
     name rwrist
     direction -1 -4.48966e-011 9.54866e-027   
     length 1.79442   
     axis -7.69462e-015 -90 -90   XYZ
    dof ry
    limits (-180.0 0.0)
  end
  begin
     id 28
     name rhand
     direction -1 -4.48973e-011 1.90973e-026   
     length 0.779235   
     axis -1.21857e-014 -90 -90   XYZ
    dof rx rz
    limits (-90.0 90.0)
           (-45.0 45.0)
  end
  begin
     id 29
     name rfingers
     direction -1 -4.48984e-011 3.81946e-026   
     length 0.62824   
     axis -2.43714e-014 -90 -90   XYZ
    dof rx
    limits (0.0 90.0)
  end
  begin
     id 30
     name rthumb
     direction -0.707107 -6.34968e-011 0.707107   
     length 0.90203   
     axis -90 -45 -2.85299e-015   XYZ
    dof rx rz
    limits (-45.0 45.0)
           (-45.0 45.0)
  end
:hierarchy
  begin
    root lhipjoint rhipjoint lowerback
    lhipjoint lfemur
    lfemur ltibia
    ltibia lfoot
    lfoot ltoes
    rhipjoint rfemur
    rfemur rtibia
    rtibia rfoot
    rfoot rtoes
    lowerback upperback
    upperback thorax
    thorax lowerneck lclavicle rclavicle
    lowerneck upperneck
    upperneck head
    lclavicle lhumerus
    lhumerus lradius
    lradius lwrist
    lwrist lhand lthumb
    lhand lfingers
    rclavicle rhumerus
    rhumerus rradius
    rradius rwrist
    rwrist rhand rthumb
    rhand rfingers
  end

#!OML:ASF I:\Random Stuff\random\construction\7_22_03\Session 2\subj1.ASF
:FULLY-SPECIFIED
:DEGREES
423
root -9.1854 17.688 -5.0966 -498.576 73.27 -510.195
lowerback 11.8593 1.38221 -3.9351
upperback 3.91838 1.73324 -9.7957
thorax -2.3076 1.17624 -8.45255
lowerneck -21.6919 -2.81817 -3.98547
upperneck 33.5406 -5.31227 10.154
head 16.0355 -0.924599 4.1408
rclavicle 5.24792e-014 5.725e-014
rhumerus 38.15 70.1466 -24.0778
rradius 72.4551
rwrist -50.8239
rhand -14.5359 -16.3994
rfingers 7.12502
rthumb 11.6123 -46.0577
lclavicle 5.24792e-014 5.725e-014
lhumerus 11.1963 -56.9135 81.7902
lradius 31.4424
lwrist -14.388
lhand -22.9498 51.8112
lfingers 7.12502
lthumb 3.49156 81.7623
rfemur -6.73937 -7.16712 23.1649
rtibia -1.19271e-014
rfoot -1.94042 -9.35629
rtoes -17.7287
lfemur -30.0085 -8.64045 -3.80277
ltibia 31.0759
lfoot -12.7282 3.60007
ltoes -32.9885
424
root -9.18793 17.6871 -5.10037 -498.329 73.2758 -509.951
lowerback 11.767 1.40488 -3.9171
upperback 3.93812 1.78075 -9.85225
thorax -2.2276 1.20355 -8.52709
lowerneck -21.733 -2.81744 -3.8819
upperneck 33.5085 -5.36492 10.1881
head 16.0342 -0.927359 4.1253
rclavicle -1.11319e-014 1.08139e-013
rhumerus 39.6692 70.1962 -22.5015
rradius 72.1354
rwrist -51.7668
rhand -14.826 -16.5848
rfingers 7.12502
rthumb 11.3325 -46.2586
lclavicle -1.11319e-014 1.08139e-013
lhumerus 11.7118 -57.5832 81.1506
lradius 31.4497
lwrist -14.0614
lhand -23.2545 51.3878
lfingers 7.12502
lthumb 3.19734 81.3436
rfemur -6.76596 -7.1174 23.2008
rtibia -7.95139e-016
rfoot -1.93397 -9.35905
rtoes -17.5663
lfemur -30.0441 -8.50426 -3.7762
ltibia 31.1474
lfoot -12.7928 3.48947
ltoes -32.9021
425
root -9.18993 17.6855 -5.10396 -498.1 73.295 -509.7
lowerback 11.6782 1.43619 -3.90026
upperback 3.97108 1.84211 -9.91407
thorax -2.13345 1.2388 -8.60839
lowerneck -21.8073 -2.84637 -3.76628
upperneck 33.5228 -5.44429 10.15
head 16.0627 -0.948812 4.07333
rclavicle 1.11319e-014 -6.36111e-015
rhumerus 41.2294 70.2461 -20.9061
rradius 71.9623
rwrist -52.2202
rhand -14.822 -16.7172
rfingers 7.12502
rthumb 11.3364 -46.3908
lclavicle 1.11319e-014 -6.36111e-015
lhumerus 12.1943 -58.1233 80.5863
lradius 31.4108
lwrist -13.7832
lhand -23.3981 51.2092
lfingers 7.12502
lthumb 3.05869 81.167
rfemur -6.76764 -7.0566 23.2313
rtibia -1.51076e-014
rfoot -1.90153 -9.35702
rtoes -17.7249
lfemur -30.0507 -8.48933 -3.72937
ltibia 31.2319
lfoot -12.8365 3.50503
ltoes -32.6097
426
root -9.19176 17.683 -5.10843 -497.861 73.3118 -509.398
lowerback 11.6124 1.45701 -3.89358
upperback 4.0098 1.88637 -9.96132
thorax -2.04853 1.26506 -8.66609
lowerneck -21.8591 -2.85495 -3.64701
upperneck 33.5426 -5.4811 10.075
head 16.0815 -0.95796 4.01259
rclavicle -3.02153e-014 -3.18055e-014
rhumerus 43.0069 70.3268 -19.1343
rradius 71.9428
rwrist -52.5902
rhand -15.111 -17.0271
rfingers 7.12502
rthumb 11.0577 -46.7158
lclavicle -3.02153e-014 -3.18055e-014
lhumerus 12.6117 -58.5891 80.0155
lradius 31.4216
lwrist -13.4324
lhand -23.3858 51.3045
lfingers 7.12502
lthumb 3.07054 81.2621
rfemur -6.72677 -6.98884 23.2742
rtibia -3.18055e-015
rfoot -1.85408 -9.37939
rtoes -17.9962
lfemur -30.0194 -8.46725 -3.68536
ltibia 31.3277
lfoot -12.8836 3.52573
ltoes -32.4358
427
root -9.19402 17.6807 -5.1122 -497.541 73.332 -509.011
lowerback 11.5815 1.4982 -3.84886
upperback 4.03967 1.95708 -10.0119
thorax -1.98756 1.3044 -8.75557
lowerneck -21.944 -2.86292 -3.53115
upperneck 33.5749 -5.50649 9.97121
head 16.1116 -0.96621 3.9429
rclavicle -2.54444e-014 1.20861e-013
rhumerus 44.4899 70.339 -17.6263
rradius 71.9586
rwrist -53.0837
rhand -15.345 -17.2862
rfingers 7.12502
rthumb 10.832 -46.9869
lclavicle -2.54444e-014 1.20861e-013
lhumerus 13.0204 -59.1146 79.4282
lradius 31.5168
lwrist -13.0362
lhand -23.3719 51.4351
lfingers 7.12502
lthumb 3.08396 81.3925
rfemur -6.68814 -6.90107 23.3383
rtibia -1.27222e-014
rfoot -1.81787 -9.39562
rtoes -18.0089
lfemur -29.987 -8.37682 -3.6328
ltibia 31.4234
lfoot -12.9388 3.50432
ltoes -32.4201
428
root -9.19539 17.6795 -5.11375 -497.149 73.3563 -508.544
lowerback 11.5739 1.54526 -3.81863
upperback 4.04775 2.02812 -10.0599
thorax -1.96273 1.34275 -8.83598
lowerneck -22.02 -2.85228 -3.38706
upperneck 33.6454 -5.50404 9.83961
head 16.1533 -0.961652 3.86382
rclavicle 9.54166e-014 -1.24042e-013
rhumerus 45.6234 70.3188 -16.4629
rradius 72.0317
rwrist -53.5741
rhand -15.3621 -17.3056
rfingers 7.12502
rthumb 10.8155 -47.0071
lclavicle 9.54166e-014 -1.24042e-013
lhumerus 13.2654 -59.5466 78.9825
lradius 31.6589
lwrist -12.7403
lhand -23.3919 51.618
lfingers 7.12502
lthumb 3.06461 81.5757
rfemur -6.64315 -6.79343 23.4219
rtibia -1.59028e-015
rfoot -1.79355 -9.39003
rtoes -17.9959
lfemur -29.9337 -8.30692 -3.5468
ltibia 31.5065
lfoot -12.9775 3.52961
ltoes -32.4617
429
root -9.19657 17.6788 -5.11491 -496.792 73.406 -508.126
lowerback 11.5413 1.59358 -3.89551
upperback 4.04669 2.08875 -10.0732
thorax -1.94008 1.37369 -8.8122
lowerneck -22.0641 -2.84579 -3.34844
upperneck 33.7371 -5.49236 9.78796
head 16.2045 -0.955188 3.84268
rclavicle -3.18055e-015 -7.95139e-014
rhumerus 46.7654 70.2771 -15.2396
rradius 72.244
rwrist -53.4751
rhand -15.3175 -17.3209
rfingers 7.12502
rthumb 10.8585 -47.0202
lclavicle -3.18055e-015 -7.95139e-014
lhumerus 13.2554 -59.6105 78.9149
lradius 31.714
lwrist -12.7904
lhand -23.3614 51.6933
lfingers 7.12502
lthumb 3.09413 81.6506
rfemur -6.61239 -6.67603 23.4774
rtibia -3.97569e-015
rfoot -1.76086 -9.40667
rtoes -18.0356
lfemur -29.8716 -8.26691 -3.47754
ltibia 31.5589
lfoot -13.0077 3.58577
ltoes -32.3549
430
root -9.19866 17.6787 -5.1167 -496.556 73.4955 -507.868
lowerback 11.4829 1.64822 -4.05028
upperback 4.05466 2.15302 -10.0667
thorax -1.89672 1.40589 -8.71913
lowerneck -22.1391 -2.84832 -3.4359
upperneck 33.7982 -5.46257 9.78385
head 16.2522 -0.952638 3.86714
rclavicle 1.27222e-014 -6.99722e-014
rhumerus 47.8264 70.1953 -14.0056
rradius 72.6161
rwrist -52.3527
rhand -15.1195 -17.4801
rfingers 7.12502
rthumb 11.0495 -47.1693
lclavicle 1.27222e-014 -6.99722e-014
lhumerus 13.2839 -59.5515 78.9599
lradius 31.6877
lwrist -12.9569
lhand -23.293 51.7192
lfingers 7.12502
lthumb 3.16015 81.6755
rfemur -6.61455 -6.55999 23.4707
rtibia 2.38542e-015
rfoot -1.72269 -9.44081
rtoes -18.1676
lfemur -29.8204 -8.24372 -3.47105
ltibia 31.5778
lfoot -13.0461 3.64629
ltoes -32.2374
431
root -9.20006 17.6795 -5.11804 -496.429 73.6177 -507.733
lowerback 11.4114 1.69383 -4.19548
upperback 4.07904 2.21232 -10.0861
thorax -1.82806 1.43755 -8.65874
lowerneck -22.2411 -2.80328 -3.47926
upperneck 33.7831 -5.349 9.692
head 16.2533 -0.925736 3.85564
rclavicle 3.18055e-014 1.59028e-014
rhumerus 48.5229 70.0965 -13.1148
rradius 73.0841
rwrist -50.411
rhand -14.61 -17.3067
rfingers 7.12502
rthumb 11.5409 -46.969
lclavicle 3.18055e-014 1.59028e-014
lhumerus 13.5761 -59.7357 78.6765
lradius 31.7246
lwrist -12.8134
lhand -23.2917 51.7808
lfingers 7.12502
lthumb 3.16143 81.7371
rfemur -6.63182 -6.44456 23.4139
rtibia 7.95139e-016
rfoot -1.68426 -9.45399
rtoes -18.4795
lfemur -29.7612 -8.21918 -3.52382
ltibia 31.5736
lfoot -13.0572 3.74007
ltoes -32.3327
432
root -9.20059 17.68 -5.11914 -496.37 73.7285 -507.655
lowerback 11.353 1.70713 -4.33384
upperback 4.09638 2.22708 -10.1095
thorax -1.77907 1.44654 -8.60222
lowerneck -22.3224 -2.70933 -3.48531
upperneck 33.7791 -5.15935 9.55667
head 16.2438 -0.868645 3.83387
rclavicle 2.22639e-014 -1.27222e-014
rhumerus 49.1816 70.089 -12.2369
rradius 73.7145
rwrist -47.8862
rhand -13.872 -16.7548
rfingers 7.12502
rthumb 12.2525 -46.3759
lclavicle 2.22639e-014 -1.27222e-014
lhumerus 13.5918 -59.6219 78.6683
lradius 31.646
lwrist -12.9321
lhand -23.4038 51.5392
lfingers 7.12502
lthumb 3.05311 81.4971
rfemur -6.63458 -6.35036 23.3467
rtibia 2.78299e-014
rfoot -1.65789 -9.45986
rtoes -18.6114
lfemur -29.6953 -8.14031 -3.60842
ltibia 31.561
lfoot -13.0457 3.80073
ltoes -32.6368
433
root -9.2012 17.6795 -5.12043 -496.358 73.8034 -507.618
lowerback 11.3192 1.69154 -4.49701
upperback 4.09653 2.19342 -10.1025
thorax -1.76985 1.42879 -8.49327
lowerneck -22.4104 -2.615 -3.52115
upperneck 33.8592 -4.94815 9.39812
head 16.2759 -0.807441 3.81717
rclavicle -6.36111e-015 -3.18055e-015
rhumerus 50.1824 70.2212 -10.9622
rradius 74.5021
rwrist -44.7653
rhand -12.989 -15.9962
rfingers 7.12502
rthumb 13.1038 -45.5645
lclavicle -6.36111e-015 -3.18055e-015
lhumerus 13.1946 -59.0914 79.139
lradius 31.4792
lwrist -13.5011
lhand -23.4913 51.2697
lfingers 7.12502
lthumb 2.96865 81.2288
rfemur -6.61008 -6.29149 23.2896
rtibia -1.27222e-014
rfoot -1.67002 -9.45497
rtoes -18.4419
lfemur -29.6418 -8.05025 -3.68052
ltibia 31.5553
lfoot -13.0783 3.76878
ltoes -32.871
434
root -9.20206 17.679 -5.12216 -496.408 73.8565 -507.686
lowerback 11.2453 1.6603 -4.67363
upperback 4.10442 2.14097 -10.0648
thorax -1.7343 1.40034 -8.33695
lowerneck -22.5545 -2.56398 -3.56677
upperneck 33.9321 -4.76065 9.12039
head 16.3153 -0.776786 3.74316
rclavicle 3.02153e-014 -3.18055e-014
rhumerus 51.4365 70.4108 -9.38755
rradius 75.2877
rwrist -40.917
rhand -11.8739 -14.7811
rfingers 7.12502
rthumb 14.1785 -44.2773
lclavicle 3.02153e-014 -3.18055e-014
lhumerus 12.8735 -58.5948 79.5666
lradius 31.3745
lwrist -13.9526
lhand -23.5604 51.2121
lfingers 7.12502
lthumb 2.9019 81.1721
rfemur -6.63405 -6.26644 23.2304
rtibia -8.74653e-015
rfoot -1.66337 -9.43171
rtoes -18.5309
lfemur -29.6492 -8.02237 -3.73852
ltibia 31.5658
lfoot -13.1117 3.74063
ltoes -32.7772
435
root -9.20654 17.6772 -5.12283 -496.701 73.8346 -507.98
lowerback 11.2704 1.6107 -4.84471
upperback 4.13145 2.05617 -9.99426
thorax -1.7371 1.35516 -8.14866
lowerneck -22.6507 -2.51358 -3.66993
upperneck 33.9278 -4.57062 8.90404
head 16.3093 -0.74686 3.70214
rclavicle -3.33958e-014 0
rhumerus 52.8028 70.6335 -7.65057
rradius 76.0191
rwrist -36.3059
rhand -10.6275 -13.1476
rfingers 7.12502
rthumb 15.3793 -42.5556
lclavicle -3.33958e-014 0
lhumerus 12.7408 -58.2656 79.8336
lradius 31.305
lwrist -14.1798
lhand -23.7124 51.1777
lfingers 7.12502
lthumb 2.75513 81.1396
rfemur -6.64926 -6.34046 23.1742
rtibia -2.70347e-014
rfoot -1.60679 -9.42679
rtoes -18.741
lfemur -29.7007 -8.06484 -3.80222
ltibia 31.5979
lfoot -13.076 3.70967
ltoes -32.5156
436
root -9.20829 17.6753 -5.12283 -496.628 73.8245 -507.917
lowerback 11.2487 1.61051 -4.96296
upperback 4.14211 2.04351 -9.91931
thorax -1.72221 1.34521 -7.99325
lowerneck -22.6456 -2.42697 -3.80471
upperneck 33.8807 -4.36058 8.83887
head 16.2636 -0.690815 3.73579
rclavicle -1.74931e-014 -1.01778e-013
rhumerus 54.3305 70.926 -5.682
rradius 76.6884
rwrist -31.054
rhand -9.61957 -11.3475
rfingers 7.12502
rthumb 16.35 -40.6783
lclavicle -1.74931e-014 -1.01778e-013
lhumerus 12.7089 -58.1171 79.9869
lradius 31.2454
lwrist -14.2805
lhand -23.8033 51.1661
lfingers 7.12502
lthumb 2.66729 81.1292
rfemur -6.68509 -6.33403 23.1965
rtibia -5.56597e-015
rfoot -1.55956 -9.43704
rtoes -18.8171
lfemur -29.7604 -7.95032 -3.80034
ltibia 31.6473
lfoot -13.0732 3.57473
ltoes -32.1673
